<svg xmlns="http://www.w3.org/2000/svg" xmlns:xlink="http://www.w3.org/1999/xlink" width="2018" height="1501" viewBox="0 0 2018 1501">
  <defs>
    <clipPath id="clip-Artboard_1">
      <rect width="2018" height="1501"/>
    </clipPath>
  </defs>
  <g id="Artboard_1" data-name="Artboard – 1" clip-path="url(#clip-Artboard_1)">
    <rect width="2018" height="1501" fill="#fff"/>
    <g id="Group_1" data-name="Group 1" transform="translate(483 644)">
      <g id="Rectangle_1" data-name="Rectangle 1" transform="translate(-327 -329)" fill="#fff" stroke="rgba(255,255,255,0.26)" stroke-width="1">
        <rect width="1450" height="1044" stroke="none"/>
        <rect x="0.5" y="0.5" width="1449" height="1043" fill="none"/>
      </g>
      <line id="Line_8" data-name="Line 8" y1="7" x2="1451" transform="translate(-327 621)" fill="none" stroke="rgba(112,112,112,0.26)" stroke-width="1"/>
      <line id="Line_9" data-name="Line 9" y1="7" x2="1451" transform="translate(-327 708)" fill="none" stroke="#707070" stroke-width="1"/>
      <line id="Line_10" data-name="Line 10" y1="7" x2="1451" transform="translate(-327 534)" fill="none" stroke="rgba(112,112,112,0.26)" stroke-width="1"/>
      <line id="Line_11" data-name="Line 11" y1="7" x2="1451" transform="translate(-327 447)" fill="none" stroke="rgba(112,112,112,0.26)" stroke-width="1"/>
      <line id="Line_12" data-name="Line 12" y1="7" x2="1451" transform="translate(-327 360)" fill="none" stroke="rgba(112,112,112,0.26)" stroke-width="1"/>
      <line id="Line_13" data-name="Line 13" y1="7" x2="1451" transform="translate(-327 273)" fill="none" stroke="rgba(112,112,112,0.26)" stroke-width="1"/>
      <line id="Line_14" data-name="Line 14" y1="7" x2="1451" transform="translate(-327 186)" fill="none" stroke="rgba(112,112,112,0.26)" stroke-width="1"/>
      <line id="Line_15" data-name="Line 15" y1="7" x2="1451" transform="translate(-327 99)" fill="none" stroke="rgba(112,112,112,0.26)" stroke-width="1"/>
      <line id="Line_17" data-name="Line 17" y1="7" x2="1451" transform="translate(-327 12)" fill="none" stroke="rgba(112,112,112,0.26)" stroke-width="1"/>
      <line id="Line_21" data-name="Line 21" y1="7" x2="1451" transform="translate(-326 -75)" fill="none" stroke="rgba(112,112,112,0.26)" stroke-width="1"/>
      <line id="Line_20" data-name="Line 20" y1="7" x2="1451" transform="translate(-328 -162)" fill="none" stroke="rgba(112,112,112,0.26)" stroke-width="1"/>
      <line id="Line_22" data-name="Line 22" y1="7" x2="1451" transform="translate(-328 -249)" fill="none" stroke="rgba(112,112,112,0.26)" stroke-width="1"/>
      <rect id="Rectangle_3" data-name="Rectangle 3" width="123" height="282" transform="translate(-170 435)" fill="#72a1e8"/>
      <rect id="Rectangle_4" data-name="Rectangle 4" width="123" height="311" transform="translate(-24 401)" fill="#72a1e8"/>
      <rect id="Rectangle_5" data-name="Rectangle 5" width="123" height="241" transform="translate(122 474)" fill="#72a1e8"/>
      <rect id="Rectangle_6" data-name="Rectangle 6" width="123" height="258" transform="translate(268 454)" fill="#72a1e8"/>
      <rect id="Rectangle_7" data-name="Rectangle 7" width="123" height="327" transform="translate(414 385)" fill="#72a1e8"/>
      <rect id="Rectangle_8" data-name="Rectangle 8" width="123" height="261" transform="translate(560 451)" fill="#72a1e8"/>
      <rect id="Rectangle_9" data-name="Rectangle 9" width="123" height="265" transform="translate(706 447)" fill="#72a1e8"/>
      <rect id="Rectangle_10" data-name="Rectangle 10" width="123" height="307" transform="translate(852 401)" fill="#72a1e8"/>
      <rect id="Rectangle_12" data-name="Rectangle 12" width="123" height="417" transform="translate(-316 298)" fill="#72a1e8"/>
      <rect id="Rectangle_13" data-name="Rectangle 13" width="123" height="76" transform="translate(-316 222)" fill="#48cd63"/>
      <rect id="Rectangle_14" data-name="Rectangle 14" width="123" height="116" transform="translate(-316 106)" fill="#e7243e"/>
      <rect id="Rectangle_15" data-name="Rectangle 15" width="123" height="113" transform="translate(-316 109)" fill="#e7243e"/>
      <rect id="Rectangle_16" data-name="Rectangle 16" width="123" height="74" transform="translate(-316 32)" fill="rgba(152,72,205,0.9)"/>
      <rect id="Rectangle_17" data-name="Rectangle 17" width="123" height="286" transform="translate(-316 -254)" fill="rgba(246,179,23,0.9)"/>
      <text id="_10" data-name="10" transform="translate(-387 528)" fill="#111" font-size="26" font-family="Helvetica-Bold, Helvetica" font-weight="700"><tspan x="0" y="20">10</tspan></text>
      <text id="_15" data-name="15" transform="translate(-387 435)" fill="#111" font-size="26" font-family="Helvetica-Bold, Helvetica" font-weight="700"><tspan x="0" y="20">15</tspan></text>
      <text id="_20" data-name="20" transform="translate(-384 342)" fill="#111" font-size="26" font-family="Helvetica-Bold, Helvetica" font-weight="700"><tspan x="0" y="20">20</tspan></text>
      <text id="_25" data-name="25" transform="translate(-384 260)" fill="#111" font-size="26" font-family="Helvetica-Bold, Helvetica" font-weight="700"><tspan x="0" y="20">25</tspan></text>
      <text id="_30" data-name="30" transform="translate(-384 178)" fill="#111" font-size="26" font-family="Helvetica-Bold, Helvetica" font-weight="700"><tspan x="0" y="20">30</tspan></text>
      <text id="_35" data-name="35" transform="translate(-384 96)" fill="#111" font-size="26" font-family="Helvetica-Bold, Helvetica" font-weight="700"><tspan x="0" y="20">35</tspan></text>
      <text id="_40" data-name="40" transform="translate(-387 3)" fill="#111" font-size="26" font-family="Helvetica-Bold, Helvetica" font-weight="700"><tspan x="0" y="20">40</tspan></text>
      <text id="_45" data-name="45" transform="translate(-384 -79)" fill="#111" font-size="26" font-family="Helvetica-Bold, Helvetica" font-weight="700"><tspan x="0" y="20">45</tspan></text>
      <text id="_50" data-name="50" transform="translate(-384 -172)" fill="#111" font-size="26" font-family="Helvetica-Bold, Helvetica" font-weight="700"><tspan x="0" y="20">50</tspan></text>
      <text id="_55" data-name="55" transform="translate(-384 -254)" fill="#111" font-size="26" font-family="Helvetica-Bold, Helvetica" font-weight="700"><tspan x="0" y="20">55</tspan></text>
      <text id="_5_" data-name="5
" transform="translate(-387 610)" fill="#111" font-size="26" font-family="Helvetica-Bold, Helvetica" font-weight="700"><tspan x="0" y="20">5</tspan><tspan font-family="SegoeUI-Bold, Segoe UI"><tspan x="0" y="51"></tspan></tspan></text>
      <rect id="Rectangle_18" data-name="Rectangle 18" width="123" height="136" transform="translate(-170 299)" fill="#48cd63"/>
      <rect id="Rectangle_19" data-name="Rectangle 19" width="123" height="200" transform="translate(-170 102)" fill="#e7243e"/>
      <rect id="Rectangle_20" data-name="Rectangle 20" width="123" height="87" transform="translate(-170 15)" fill="rgba(152,72,205,0.9)"/>
      <rect id="Rectangle_21" data-name="Rectangle 21" width="123" height="242" transform="translate(-170 -227)" fill="rgba(246,179,23,0.9)"/>
      <rect id="Rectangle_22" data-name="Rectangle 22" width="123" height="122" transform="translate(-24 287)" fill="#48cd63"/>
      <rect id="Rectangle_23" data-name="Rectangle 23" width="123" height="203" transform="translate(-24 87)" fill="#e7243e"/>
      <rect id="Rectangle_24" data-name="Rectangle 24" width="123" height="73" transform="translate(-24 19)" fill="rgba(152,72,205,0.9)"/>
      <rect id="Rectangle_25" data-name="Rectangle 25" width="123" height="188" transform="translate(-24 -169)" fill="rgba(246,179,23,0.9)"/>
      <rect id="Rectangle_26" data-name="Rectangle 26" width="123" height="89" transform="translate(122 385)" fill="#48cd63"/>
      <rect id="Rectangle_27" data-name="Rectangle 27" width="123" height="180" transform="translate(122 205)" fill="#e7243e"/>
      <rect id="Rectangle_28" data-name="Rectangle 28" width="123" height="83" transform="translate(122 123)" fill="rgba(152,72,205,0.9)"/>
      <rect id="Rectangle_29" data-name="Rectangle 29" width="123" height="262" transform="translate(122 -139)" fill="rgba(246,179,23,0.9)"/>
      <rect id="Rectangle_30" data-name="Rectangle 30" width="123" height="89" transform="translate(268 365)" fill="#48cd63"/>
      <rect id="Rectangle_31" data-name="Rectangle 31" width="123" height="231" transform="translate(268 133)" fill="#e7243e"/>
      <rect id="Rectangle_32" data-name="Rectangle 32" width="123" height="83" transform="translate(268 51)" fill="rgba(152,72,205,0.9)"/>
      <rect id="Rectangle_33" data-name="Rectangle 33" width="123" height="185" transform="translate(268 -129)" fill="rgba(246,179,23,0.9)"/>
      <rect id="Rectangle_34" data-name="Rectangle 34" width="123" height="98" transform="translate(414 287)" fill="#48cd63"/>
      <rect id="Rectangle_35" data-name="Rectangle 35" width="123" height="218" transform="translate(414 69)" fill="#e7243e"/>
      <rect id="Rectangle_36" data-name="Rectangle 36" width="123" height="39" transform="translate(414 30)" fill="rgba(152,72,205,0.9)"/>
      <rect id="Rectangle_37" data-name="Rectangle 37" width="123" height="146" transform="translate(414 -116)" fill="rgba(246,179,23,0.9)"/>
      <rect id="Rectangle_38" data-name="Rectangle 38" width="123" height="73" transform="translate(560 381)" fill="#48cd63"/>
      <rect id="Rectangle_39" data-name="Rectangle 39" width="123" height="175" transform="translate(560 206)" fill="#e7243e"/>
      <rect id="Rectangle_40" data-name="Rectangle 40" width="123" height="65" transform="translate(560 142)" fill="rgba(152,72,205,0.9)"/>
      <rect id="Rectangle_41" data-name="Rectangle 41" width="123" height="179" transform="translate(560 -37)" fill="rgba(246,179,23,0.9)"/>
      <rect id="Rectangle_42" data-name="Rectangle 42" width="123" height="60" transform="translate(706 387)" fill="#48cd63"/>
      <rect id="Rectangle_43" data-name="Rectangle 43" width="123" height="163" transform="translate(706 224)" fill="#e7243e"/>
      <rect id="Rectangle_44" data-name="Rectangle 44" width="123" height="70" transform="translate(706 154)" fill="rgba(152,72,205,0.9)"/>
      <rect id="Rectangle_45" data-name="Rectangle 45" width="123" height="174" transform="translate(706 -21)" fill="rgba(246,179,23,0.9)"/>
      <rect id="Rectangle_46" data-name="Rectangle 46" width="123" height="96" transform="translate(852 305)" fill="#48cd63"/>
      <rect id="Rectangle_47" data-name="Rectangle 47" width="123" height="83" transform="translate(852 222)" fill="#e7243e"/>
      <rect id="Rectangle_49" data-name="Rectangle 49" width="123" height="142" transform="translate(852 -8)" fill="rgba(246,179,23,0.9)"/>
      <rect id="Rectangle_50" data-name="Rectangle 50" width="123" height="93" transform="translate(998 381)" fill="#48cd63"/>
      <rect id="Rectangle_51" data-name="Rectangle 51" width="123" height="94" transform="translate(998 287)" fill="#e7243e"/>
      <rect id="Rectangle_52" data-name="Rectangle 52" width="123" height="73" transform="translate(998 222)" fill="rgba(152,72,205,0.9)"/>
      <rect id="Rectangle_53" data-name="Rectangle 53" width="123" height="125" transform="translate(998 99)" fill="rgba(246,179,23,0.9)"/>
      <rect id="Rectangle_11" data-name="Rectangle 11" width="123" height="234" transform="translate(998 474)" fill="#72a1e8"/>
      <rect id="Rectangle_48" data-name="Rectangle 48" width="123" height="88" transform="translate(852 134)" fill="rgba(152,72,205,0.9)"/>
      <line id="Line_23" data-name="Line 23" x2="31" transform="translate(-346.5 628.5)" fill="none" stroke="#707070" stroke-width="1"/>
      <line id="Line_24" data-name="Line 24" x2="31" transform="translate(-346.5 540.5)" fill="none" stroke="#707070" stroke-width="1"/>
      <line id="Line_25" data-name="Line 25" x2="31" transform="translate(-346.5 454.5)" fill="none" stroke="#707070" stroke-width="1"/>
      <line id="Line_26" data-name="Line 26" x2="31" transform="translate(-346.5 366.5)" fill="none" stroke="#707070" stroke-width="1"/>
      <line id="Line_27" data-name="Line 27" x2="31" transform="translate(-346.5 280.5)" fill="none" stroke="#707070" stroke-width="1"/>
      <line id="Line_28" data-name="Line 28" x2="31" transform="translate(-346.5 192.5)" fill="none" stroke="#707070" stroke-width="1"/>
      <line id="Line_29" data-name="Line 29" x2="31" transform="translate(-346.5 714.5)" fill="none" stroke="#707070" stroke-width="1"/>
      <line id="Line_30" data-name="Line 30" x2="31" transform="translate(-346.5 106.5)" fill="none" stroke="#707070" stroke-width="1"/>
      <line id="Line_31" data-name="Line 31" x2="31" transform="translate(-346.5 628.5)" fill="none" stroke="#707070" stroke-width="1"/>
      <line id="Line_32" data-name="Line 32" x2="31" transform="translate(-346.5 20.5)" fill="none" stroke="#707070" stroke-width="1"/>
      <line id="Line_33" data-name="Line 33" x2="31" transform="translate(-346.5 -67.5)" fill="none" stroke="#707070" stroke-width="1"/>
      <line id="Line_34" data-name="Line 34" x2="31" transform="translate(-346.5 -154.5)" fill="none" stroke="#707070" stroke-width="1"/>
      <line id="Line_35" data-name="Line 35" x2="31" transform="translate(-346.5 -243.5)" fill="none" stroke="#707070" stroke-width="1"/>
      <line id="Line_36" data-name="Line 36" x2="31" transform="translate(-346.5 -328.5)" fill="none" stroke="#707070" stroke-width="1"/>
      <text id="_60" data-name="60" transform="translate(-384 -343)" fill="#111" font-size="26" font-family="Helvetica-Bold, Helvetica" font-weight="700"><tspan x="0" y="20">60</tspan></text>
      <line id="Line_37" data-name="Line 37" y1="22.5" transform="translate(-254.5 717)" fill="none" stroke="#707070" stroke-width="1"/>
      <line id="Line_38" data-name="Line 38" y1="22.5" transform="translate(-108.5 717)" fill="none" stroke="#707070" stroke-width="1"/>
      <line id="Line_39" data-name="Line 39" y1="22.5" transform="translate(37.5 714.5)" fill="none" stroke="#707070" stroke-width="1"/>
      <line id="Line_40" data-name="Line 40" y1="22.5" transform="translate(183.5 717)" fill="none" stroke="#707070" stroke-width="1"/>
      <line id="Line_41" data-name="Line 41" y1="22.5" transform="translate(329.5 717)" fill="none" stroke="#707070" stroke-width="1"/>
      <line id="Line_42" data-name="Line 42" y1="22.5" transform="translate(475.5 717)" fill="none" stroke="#707070" stroke-width="1"/>
      <line id="Line_43" data-name="Line 43" y1="22.5" transform="translate(621.5 717)" fill="none" stroke="#707070" stroke-width="1"/>
      <line id="Line_44" data-name="Line 44" y1="22.5" transform="translate(767.5 717)" fill="none" stroke="#707070" stroke-width="1"/>
      <line id="Line_45" data-name="Line 45" y1="22.5" transform="translate(475.5 717)" fill="none" stroke="#707070" stroke-width="1"/>
      <line id="Line_46" data-name="Line 46" y1="22.5" transform="translate(913.5 714)" fill="none" stroke="#707070" stroke-width="1"/>
      <line id="Line_47" data-name="Line 47" y1="22.5" transform="translate(1059.5 715)" fill="none" stroke="#707070" stroke-width="1"/>
      <text id="New_York_City" data-name="New York
City" transform="translate(-326 737)" fill="#111" font-size="26" font-family="Helvetica-Bold, Helvetica" font-weight="700"><tspan x="-58.056" y="20">New York</tspan><tspan x="-24.559" y="51">City</tspan></text>
      <text id="Las_Vegas" data-name="Las Vegas" transform="translate(-170 732)" fill="#111" font-size="26" font-family="Helvetica-Bold, Helvetica" font-weight="700"><tspan x="-22.401" y="20">Las </tspan><tspan x="-37.591" y="51">Vegas</tspan></text>
      <text id="Honolulu" transform="translate(-30 739)" fill="#111" font-size="26" font-family="Helvetica-Bold, Helvetica" font-weight="700"><tspan x="-56.316" y="20">Honolulu</tspan></text>
      <text id="Atlanta" transform="translate(134 741)" fill="#111" font-size="26" font-family="Helvetica-Bold, Helvetica" font-weight="700"><tspan x="-44.059" y="20">Atlanta</tspan></text>
      <text id="Boston" transform="translate(277 737)" fill="#111" font-size="26" font-family="Helvetica-Bold, Helvetica" font-weight="700"><tspan x="-44.77" y="20">Boston</tspan></text>
      <text id="Washington_D.C" data-name="Washington
D.C" transform="translate(397 737)" fill="#111" font-size="26" font-family="Helvetica-Bold, Helvetica" font-weight="700"><tspan x="-73.899" y="20">Washington</tspan><tspan x="-22.388" y="51">D.C</tspan></text>
      <text id="Chicago" transform="translate(564 740)" fill="#111" font-size="26" font-family="Helvetica-Bold, Helvetica" font-weight="700"><tspan x="-51.283" y="20">Chicago</tspan></text>
      <text id="Orlando" transform="translate(706 737)" fill="#111" font-size="26" font-family="Helvetica-Bold, Helvetica" font-weight="700"><tspan x="-49.835" y="20">Orlando</tspan></text>
      <text id="San_Francisco" data-name="San
Francisco" transform="translate(852 737)" fill="#111" font-size="26" font-family="Helvetica-Bold, Helvetica" font-weight="700"><tspan x="-23.842" y="20">San</tspan><tspan x="-61.414" y="51">Francisco</tspan></text>
      <text id="Seattle" transform="translate(1015 740)" fill="#111" font-size="26" font-family="Helvetica-Bold, Helvetica" font-weight="700"><tspan x="-42.631" y="20">Seattle</tspan></text>
      <text id="Seattle-2" data-name="Seattle" transform="translate(1015 740)" fill="#111" font-size="26" font-family="Helvetica-Bold, Helvetica" font-weight="700"><tspan x="-42.631" y="20">Seattle</tspan></text>
      <text id="City" transform="translate(1150 702)" fill="#111" font-size="32" font-family="Helvetica-Bold, Helvetica" font-weight="700"><tspan x="-30.227" y="25">City</tspan></text>
      <text id="Cost_" data-name="Cost($)" transform="translate(-434 -423)" fill="#111" font-size="32" font-family="Helvetica-Bold, Helvetica" font-weight="700"><tspan x="-55.109" y="25">Cost($)</tspan></text>
      <rect id="Rectangle_54" data-name="Rectangle 54" width="123" height="125" rx="61.5" transform="translate(998 99)" fill="rgba(246,179,23,0.9)"/>
      <rect id="Rectangle_55" data-name="Rectangle 55" width="123" height="125" rx="61.5" transform="translate(998 99)" fill="rgba(246,179,23,0.9)"/>
      <rect id="Rectangle_57" data-name="Rectangle 57" width="45" height="47" transform="translate(1330 -283)" fill="#9848cd"/>
      <rect id="Rectangle_58" data-name="Rectangle 58" width="45" height="47" transform="translate(1330 -228)" fill="#e7243e"/>
      <rect id="Rectangle_59" data-name="Rectangle 59" width="45" height="47" transform="translate(1330 -173)" fill="#48cd63"/>
      <rect id="Rectangle_60" data-name="Rectangle 60" width="45" height="47" transform="translate(1330 -118)" fill="#72a1e8"/>
      <line id="Line_48" data-name="Line 48" y1="7" x2="1451" transform="translate(-319 -334)" fill="none" stroke="rgba(112,112,112,0.26)" stroke-width="1"/>
      <line id="Line_49" data-name="Line 49" x1="4" y1="1071" transform="translate(-333.5 -358.5)" fill="none" stroke="#707070" stroke-width="1"/>
      <text id="Hotel_Costs_of_Room_Service" data-name="Hotel Costs of Room Service" transform="translate(-339 -595)" fill="#111" font-size="70" font-family="Helvetica-Bold, Helvetica" font-weight="700"><tspan x="0" y="54">Hotel Costs of Room Service</tspan></text>
      <rect id="Rectangle_56" data-name="Rectangle 56" width="45" height="47" transform="translate(1330 -338)" fill="#f6b317"/>
      <text id="Vodka" transform="translate(1186 -336)" fill="#111" font-size="26" font-family="Helvetica-Bold, Helvetica" font-weight="700"><tspan x="0" y="20">Vodka</tspan></text>
      <text id="Soda" transform="translate(1186 -283)" fill="#111" font-size="26" font-family="Helvetica-Bold, Helvetica" font-weight="700"><tspan x="0" y="20">Soda</tspan></text>
      <text id="Peanuts" transform="translate(1191 -224)" fill="#111" font-size="26" font-family="Helvetica-Bold, Helvetica" font-weight="700"><tspan x="0" y="20">Peanuts</tspan></text>
      <text id="Water" transform="translate(1186 -165)" fill="#111" font-size="26" font-family="Helvetica-Bold, Helvetica" font-weight="700"><tspan x="0" y="20">Water</tspan></text>
      <text id="Sandwich" transform="translate(1186 -110)" fill="#111" font-size="26" font-family="Helvetica-Bold, Helvetica" font-weight="700"><tspan x="0" y="20">Sandwich</tspan></text>
    </g>
  </g>
</svg>
