<svg xmlns="http://www.w3.org/2000/svg" width="1809" height="1389" viewBox="0 0 1809 1389">
  <defs>
    <style>
      .cls-1 {
        fill: #fff;
        stroke: rgba(255,255,255,0.26);
      }

      .cls-16, .cls-2, .cls-3 {
        fill: none;
      }

      .cls-2 {
        stroke: rgba(112,112,112,0.26);
      }

      .cls-3 {
        stroke: #707070;
      }

      .cls-4 {
        fill: #72a1e8;
      }

      .cls-5 {
        fill: #48cd63;
      }

      .cls-6 {
        fill: #e7243e;
      }

      .cls-7 {
        fill: rgba(152,72,205,0.9);
      }

      .cls-8 {
        fill: rgba(246,179,23,0.9);
      }

      .cls-11, .cls-13, .cls-9 {
        fill: #111;
        font-family: Helvetica-Bold, Helvetica;
        font-weight: 700;
      }

      .cls-9 {
        font-size: 26px;
      }

      .cls-10 {
        font-family: SegoeUI-Bold, Segoe UI;
      }

      .cls-11 {
        font-size: 32px;
      }

      .cls-12 {
        fill: #9848cd;
      }

      .cls-13 {
        font-size: 70px;
      }

      .cls-14 {
        fill: #f6b317;
      }

      .cls-15 {
        stroke: none;
      }
    </style>
  </defs>
  <g id="Group_1" data-name="Group 1" transform="translate(434 595)">
    <g id="Rectangle_1" data-name="Rectangle 1" class="cls-1" transform="translate(-327 -329)">
      <rect class="cls-15" width="1450" height="1044"/>
      <rect class="cls-16" x="0.5" y="0.5" width="1449" height="1043"/>
    </g>
    <line id="Line_8" data-name="Line 8" class="cls-2" y1="7" x2="1451" transform="translate(-327 621)"/>
    <line id="Line_9" data-name="Line 9" class="cls-3" y1="7" x2="1451" transform="translate(-327 708)"/>
    <line id="Line_10" data-name="Line 10" class="cls-2" y1="7" x2="1451" transform="translate(-327 534)"/>
    <line id="Line_11" data-name="Line 11" class="cls-2" y1="7" x2="1451" transform="translate(-327 447)"/>
    <line id="Line_12" data-name="Line 12" class="cls-2" y1="7" x2="1451" transform="translate(-327 360)"/>
    <line id="Line_13" data-name="Line 13" class="cls-2" y1="7" x2="1451" transform="translate(-327 273)"/>
    <line id="Line_14" data-name="Line 14" class="cls-2" y1="7" x2="1451" transform="translate(-327 186)"/>
    <line id="Line_15" data-name="Line 15" class="cls-2" y1="7" x2="1451" transform="translate(-327 99)"/>
    <line id="Line_17" data-name="Line 17" class="cls-2" y1="7" x2="1451" transform="translate(-327 12)"/>
    <line id="Line_21" data-name="Line 21" class="cls-2" y1="7" x2="1451" transform="translate(-326 -75)"/>
    <line id="Line_20" data-name="Line 20" class="cls-2" y1="7" x2="1451" transform="translate(-328 -162)"/>
    <line id="Line_22" data-name="Line 22" class="cls-2" y1="7" x2="1451" transform="translate(-328 -249)"/>
    <rect id="Rectangle_3" data-name="Rectangle 3" class="cls-4" width="123" height="282" transform="translate(-170 435)"/>
    <rect id="Rectangle_4" data-name="Rectangle 4" class="cls-4" width="123" height="311" transform="translate(-24 401)"/>
    <rect id="Rectangle_5" data-name="Rectangle 5" class="cls-4" width="123" height="241" transform="translate(122 474)"/>
    <rect id="Rectangle_6" data-name="Rectangle 6" class="cls-4" width="123" height="258" transform="translate(268 454)"/>
    <rect id="Rectangle_7" data-name="Rectangle 7" class="cls-4" width="123" height="327" transform="translate(414 385)"/>
    <rect id="Rectangle_8" data-name="Rectangle 8" class="cls-4" width="123" height="261" transform="translate(560 451)"/>
    <rect id="Rectangle_9" data-name="Rectangle 9" class="cls-4" width="123" height="265" transform="translate(706 447)"/>
    <rect id="Rectangle_10" data-name="Rectangle 10" class="cls-4" width="123" height="307" transform="translate(852 401)"/>
    <rect id="Rectangle_12" data-name="Rectangle 12" class="cls-4" width="123" height="417" transform="translate(-316 298)"/>
    <rect id="Rectangle_13" data-name="Rectangle 13" class="cls-5" width="123" height="76" transform="translate(-316 222)"/>
    <rect id="Rectangle_14" data-name="Rectangle 14" class="cls-6" width="123" height="116" transform="translate(-316 106)"/>
    <rect id="Rectangle_15" data-name="Rectangle 15" class="cls-6" width="123" height="113" transform="translate(-316 109)"/>
    <rect id="Rectangle_16" data-name="Rectangle 16" class="cls-7" width="123" height="74" transform="translate(-316 32)"/>
    <rect id="Rectangle_17" data-name="Rectangle 17" class="cls-8" width="123" height="286" transform="translate(-316 -254)"/>
    <text id="_10" data-name="10" class="cls-9" transform="translate(-387 528)"><tspan x="0" y="20">10</tspan></text>
    <text id="_15" data-name="15" class="cls-9" transform="translate(-387 435)"><tspan x="0" y="20">15</tspan></text>
    <text id="_20" data-name="20" class="cls-9" transform="translate(-384 342)"><tspan x="0" y="20">20</tspan></text>
    <text id="_25" data-name="25" class="cls-9" transform="translate(-384 260)"><tspan x="0" y="20">25</tspan></text>
    <text id="_30" data-name="30" class="cls-9" transform="translate(-384 178)"><tspan x="0" y="20">30</tspan></text>
    <text id="_35" data-name="35" class="cls-9" transform="translate(-384 96)"><tspan x="0" y="20">35</tspan></text>
    <text id="_40" data-name="40" class="cls-9" transform="translate(-387 3)"><tspan x="0" y="20">40</tspan></text>
    <text id="_45" data-name="45" class="cls-9" transform="translate(-384 -79)"><tspan x="0" y="20">45</tspan></text>
    <text id="_50" data-name="50" class="cls-9" transform="translate(-384 -172)"><tspan x="0" y="20">50</tspan></text>
    <text id="_55" data-name="55" class="cls-9" transform="translate(-384 -254)"><tspan x="0" y="20">55</tspan></text>
    <text id="_5_" data-name="5
" class="cls-9" transform="translate(-387 610)"><tspan x="0" y="20">5</tspan><tspan class="cls-10"><tspan x="0" y="51"></tspan></tspan></text>
    <rect id="Rectangle_18" data-name="Rectangle 18" class="cls-5" width="123" height="136" transform="translate(-170 299)"/>
    <rect id="Rectangle_19" data-name="Rectangle 19" class="cls-6" width="123" height="200" transform="translate(-170 102)"/>
    <rect id="Rectangle_20" data-name="Rectangle 20" class="cls-7" width="123" height="87" transform="translate(-170 15)"/>
    <rect id="Rectangle_21" data-name="Rectangle 21" class="cls-8" width="123" height="242" transform="translate(-170 -227)"/>
    <rect id="Rectangle_22" data-name="Rectangle 22" class="cls-5" width="123" height="122" transform="translate(-24 287)"/>
    <rect id="Rectangle_23" data-name="Rectangle 23" class="cls-6" width="123" height="203" transform="translate(-24 87)"/>
    <rect id="Rectangle_24" data-name="Rectangle 24" class="cls-7" width="123" height="73" transform="translate(-24 19)"/>
    <rect id="Rectangle_25" data-name="Rectangle 25" class="cls-8" width="123" height="188" transform="translate(-24 -169)"/>
    <rect id="Rectangle_26" data-name="Rectangle 26" class="cls-5" width="123" height="89" transform="translate(122 385)"/>
    <rect id="Rectangle_27" data-name="Rectangle 27" class="cls-6" width="123" height="180" transform="translate(122 205)"/>
    <rect id="Rectangle_28" data-name="Rectangle 28" class="cls-7" width="123" height="83" transform="translate(122 123)"/>
    <rect id="Rectangle_29" data-name="Rectangle 29" class="cls-8" width="123" height="262" transform="translate(122 -139)"/>
    <rect id="Rectangle_30" data-name="Rectangle 30" class="cls-5" width="123" height="89" transform="translate(268 365)"/>
    <rect id="Rectangle_31" data-name="Rectangle 31" class="cls-6" width="123" height="231" transform="translate(268 133)"/>
    <rect id="Rectangle_32" data-name="Rectangle 32" class="cls-7" width="123" height="83" transform="translate(268 51)"/>
    <rect id="Rectangle_33" data-name="Rectangle 33" class="cls-8" width="123" height="185" transform="translate(268 -129)"/>
    <rect id="Rectangle_34" data-name="Rectangle 34" class="cls-5" width="123" height="98" transform="translate(414 287)"/>
    <rect id="Rectangle_35" data-name="Rectangle 35" class="cls-6" width="123" height="218" transform="translate(414 69)"/>
    <rect id="Rectangle_36" data-name="Rectangle 36" class="cls-7" width="123" height="39" transform="translate(414 30)"/>
    <rect id="Rectangle_37" data-name="Rectangle 37" class="cls-8" width="123" height="146" transform="translate(414 -116)"/>
    <rect id="Rectangle_38" data-name="Rectangle 38" class="cls-5" width="123" height="73" transform="translate(560 381)"/>
    <rect id="Rectangle_39" data-name="Rectangle 39" class="cls-6" width="123" height="175" transform="translate(560 206)"/>
    <rect id="Rectangle_40" data-name="Rectangle 40" class="cls-7" width="123" height="65" transform="translate(560 142)"/>
    <rect id="Rectangle_41" data-name="Rectangle 41" class="cls-8" width="123" height="179" transform="translate(560 -37)"/>
    <rect id="Rectangle_42" data-name="Rectangle 42" class="cls-5" width="123" height="60" transform="translate(706 387)"/>
    <rect id="Rectangle_43" data-name="Rectangle 43" class="cls-6" width="123" height="163" transform="translate(706 224)"/>
    <rect id="Rectangle_44" data-name="Rectangle 44" class="cls-7" width="123" height="70" transform="translate(706 154)"/>
    <rect id="Rectangle_45" data-name="Rectangle 45" class="cls-8" width="123" height="174" transform="translate(706 -21)"/>
    <rect id="Rectangle_46" data-name="Rectangle 46" class="cls-5" width="123" height="96" transform="translate(852 305)"/>
    <rect id="Rectangle_47" data-name="Rectangle 47" class="cls-6" width="123" height="83" transform="translate(852 222)"/>
    <rect id="Rectangle_49" data-name="Rectangle 49" class="cls-8" width="123" height="142" transform="translate(852 -8)"/>
    <rect id="Rectangle_50" data-name="Rectangle 50" class="cls-5" width="123" height="93" transform="translate(998 381)"/>
    <rect id="Rectangle_51" data-name="Rectangle 51" class="cls-6" width="123" height="94" transform="translate(998 287)"/>
    <rect id="Rectangle_52" data-name="Rectangle 52" class="cls-7" width="123" height="73" transform="translate(998 222)"/>
    <rect id="Rectangle_53" data-name="Rectangle 53" class="cls-8" width="123" height="125" transform="translate(998 99)"/>
    <rect id="Rectangle_11" data-name="Rectangle 11" class="cls-4" width="123" height="234" transform="translate(998 474)"/>
    <rect id="Rectangle_48" data-name="Rectangle 48" class="cls-7" width="123" height="88" transform="translate(852 134)"/>
    <line id="Line_23" data-name="Line 23" class="cls-3" x2="31" transform="translate(-346.5 628.5)"/>
    <line id="Line_24" data-name="Line 24" class="cls-3" x2="31" transform="translate(-346.5 540.5)"/>
    <line id="Line_25" data-name="Line 25" class="cls-3" x2="31" transform="translate(-346.5 454.5)"/>
    <line id="Line_26" data-name="Line 26" class="cls-3" x2="31" transform="translate(-346.5 366.5)"/>
    <line id="Line_27" data-name="Line 27" class="cls-3" x2="31" transform="translate(-346.5 280.5)"/>
    <line id="Line_28" data-name="Line 28" class="cls-3" x2="31" transform="translate(-346.5 192.5)"/>
    <line id="Line_29" data-name="Line 29" class="cls-3" x2="31" transform="translate(-346.5 714.5)"/>
    <line id="Line_30" data-name="Line 30" class="cls-3" x2="31" transform="translate(-346.5 106.5)"/>
    <line id="Line_31" data-name="Line 31" class="cls-3" x2="31" transform="translate(-346.5 628.5)"/>
    <line id="Line_32" data-name="Line 32" class="cls-3" x2="31" transform="translate(-346.5 20.5)"/>
    <line id="Line_33" data-name="Line 33" class="cls-3" x2="31" transform="translate(-346.5 -67.5)"/>
    <line id="Line_34" data-name="Line 34" class="cls-3" x2="31" transform="translate(-346.5 -154.5)"/>
    <line id="Line_35" data-name="Line 35" class="cls-3" x2="31" transform="translate(-346.5 -243.5)"/>
    <line id="Line_36" data-name="Line 36" class="cls-3" x2="31" transform="translate(-346.5 -328.5)"/>
    <text id="_60" data-name="60" class="cls-9" transform="translate(-384 -343)"><tspan x="0" y="20">60</tspan></text>
    <line id="Line_37" data-name="Line 37" class="cls-3" y1="22.5" transform="translate(-254.5 717)"/>
    <line id="Line_38" data-name="Line 38" class="cls-3" y1="22.5" transform="translate(-108.5 717)"/>
    <line id="Line_39" data-name="Line 39" class="cls-3" y1="22.5" transform="translate(37.5 714.5)"/>
    <line id="Line_40" data-name="Line 40" class="cls-3" y1="22.5" transform="translate(183.5 717)"/>
    <line id="Line_41" data-name="Line 41" class="cls-3" y1="22.5" transform="translate(329.5 717)"/>
    <line id="Line_42" data-name="Line 42" class="cls-3" y1="22.5" transform="translate(475.5 717)"/>
    <line id="Line_43" data-name="Line 43" class="cls-3" y1="22.5" transform="translate(621.5 717)"/>
    <line id="Line_44" data-name="Line 44" class="cls-3" y1="22.5" transform="translate(767.5 717)"/>
    <line id="Line_45" data-name="Line 45" class="cls-3" y1="22.5" transform="translate(475.5 717)"/>
    <line id="Line_46" data-name="Line 46" class="cls-3" y1="22.5" transform="translate(913.5 714)"/>
    <line id="Line_47" data-name="Line 47" class="cls-3" y1="22.5" transform="translate(1059.5 715)"/>
    <text id="New_York_City" data-name="New York
City" class="cls-9" transform="translate(-326 737)"><tspan x="-58.056" y="20">New York</tspan><tspan x="-24.559" y="51">City</tspan></text>
    <text id="Las_Vegas" data-name="Las Vegas" class="cls-9" transform="translate(-170 732)"><tspan x="-22.401" y="20">Las </tspan><tspan x="-37.591" y="51">Vegas</tspan></text>
    <text id="Honolulu" class="cls-9" transform="translate(-30 739)"><tspan x="-56.316" y="20">Honolulu</tspan></text>
    <text id="Atlanta" class="cls-9" transform="translate(134 741)"><tspan x="-44.059" y="20">Atlanta</tspan></text>
    <text id="Boston" class="cls-9" transform="translate(277 737)"><tspan x="-44.77" y="20">Boston</tspan></text>
    <text id="Washington_D.C" data-name="Washington
D.C" class="cls-9" transform="translate(397 737)"><tspan x="-73.899" y="20">Washington</tspan><tspan x="-22.388" y="51">D.C</tspan></text>
    <text id="Chicago" class="cls-9" transform="translate(564 740)"><tspan x="-51.283" y="20">Chicago</tspan></text>
    <text id="Orlando" class="cls-9" transform="translate(706 737)"><tspan x="-49.835" y="20">Orlando</tspan></text>
    <text id="San_Francisco" data-name="San
Francisco" class="cls-9" transform="translate(852 737)"><tspan x="-23.842" y="20">San</tspan><tspan x="-61.414" y="51">Francisco</tspan></text>
    <text id="Seattle" class="cls-9" transform="translate(1015 740)"><tspan x="-42.631" y="20">Seattle</tspan></text>
    <text id="Seattle-2" data-name="Seattle" class="cls-9" transform="translate(1015 740)"><tspan x="-42.631" y="20">Seattle</tspan></text>
    <text id="City" class="cls-11" transform="translate(1150 702)"><tspan x="-30.227" y="25">City</tspan></text>
    <text id="Cost_" data-name="Cost($)" class="cls-11" transform="translate(-434 -423)"><tspan x="-55.109" y="25">Cost($)</tspan></text>
    <rect id="Rectangle_54" data-name="Rectangle 54" class="cls-8" width="123" height="125" rx="61.5" transform="translate(998 99)"/>
    <rect id="Rectangle_55" data-name="Rectangle 55" class="cls-8" width="123" height="125" rx="61.5" transform="translate(998 99)"/>
    <rect id="Rectangle_57" data-name="Rectangle 57" class="cls-12" width="45" height="47" transform="translate(1330 -283)"/>
    <rect id="Rectangle_58" data-name="Rectangle 58" class="cls-6" width="45" height="47" transform="translate(1330 -228)"/>
    <rect id="Rectangle_59" data-name="Rectangle 59" class="cls-5" width="45" height="47" transform="translate(1330 -173)"/>
    <rect id="Rectangle_60" data-name="Rectangle 60" class="cls-4" width="45" height="47" transform="translate(1330 -118)"/>
    <line id="Line_48" data-name="Line 48" class="cls-2" y1="7" x2="1451" transform="translate(-319 -334)"/>
    <line id="Line_49" data-name="Line 49" class="cls-3" x1="4" y1="1071" transform="translate(-333.5 -358.5)"/>
    <text id="Hotel_Costs_of_Room_Service" data-name="Hotel Costs of Room Service" class="cls-13" transform="translate(-339 -595)"><tspan x="0" y="54">Hotel Costs of Room Service</tspan></text>
    <rect id="Rectangle_56" data-name="Rectangle 56" class="cls-14" width="45" height="47" transform="translate(1330 -338)"/>
    <text id="Vodka" class="cls-9" transform="translate(1186 -336)"><tspan x="0" y="20">Vodka</tspan></text>
    <text id="Soda" class="cls-9" transform="translate(1186 -283)"><tspan x="0" y="20">Soda</tspan></text>
    <text id="Peanuts" class="cls-9" transform="translate(1191 -224)"><tspan x="0" y="20">Peanuts</tspan></text>
    <text id="Water" class="cls-9" transform="translate(1186 -165)"><tspan x="0" y="20">Water</tspan></text>
    <text id="Sandwich" class="cls-9" transform="translate(1186 -110)"><tspan x="0" y="20">Sandwich</tspan></text>
  </g>
</svg>
